<?xml version="1.0" encoding="UTF-8"?>
<svg version="1.1" xmlns="http://www.w3.org/2000/svg" width="120" height="41">
<path d="M0 0 C39.6 0 79.2 0 120 0 C120 13.53 120 27.06 120 41 C80.4 41 40.8 41 0 41 C0 27.47 0 13.94 0 0 Z " fill="#2042AF" transform="translate(0,0)"/>
<path d="M0 0 C2.27864583 0.06510417 4.55729167 0.13020833 6.8359375 0.1953125 C6.8359375 5.1453125 6.8359375 10.0953125 6.8359375 15.1953125 C5.8459375 15.1953125 4.8559375 15.1953125 3.8359375 15.1953125 C3.5059375 13.8753125 3.1759375 12.5553125 2.8359375 11.1953125 C1.6603125 11.288125 1.6603125 11.288125 0.4609375 11.3828125 C-0.8384375 11.29 -0.8384375 11.29 -2.1640625 11.1953125 C-4.46570132 7.74285426 -4.50896572 6.24792537 -4.1640625 2.1953125 C-2.1640625 0.1953125 -2.1640625 0.1953125 0 0 Z " fill="#EFF1F9" transform="translate(63.1640625,17.8046875)"/>
<path d="M0 0 C4.75 0.875 4.75 0.875 7 2 C7.33 1.34 7.66 0.68 8 0 C9.65 0 11.3 0 13 0 C12.46375 0.86625 11.9275 1.7325 11.375 2.625 C9.6549709 5.91417746 9.6549709 5.91417746 10.75 9.1875 C11.1625 10.115625 11.575 11.04375 12 12 C12.33 12.99 12.66 13.98 13 15 C8.25 14.25 8.25 14.25 6 12 C5.01 13.485 5.01 13.485 4 15 C1.375 15.1875 1.375 15.1875 -1 15 C-0.29875 13.948125 0.4025 12.89625 1.125 11.8125 C2.92836888 8.75639118 2.92836888 8.75639118 2.3125 5.25 C1.879375 4.5075 1.44625 3.765 1 3 C0.67 2.01 0.34 1.02 0 0 Z " fill="#E5E9F5" transform="translate(97,14)"/>
<path d="M0 0 C1.9375 2 1.9375 2 3 4 C-0.08273985 4.99088067 -1.91724891 4.92482533 -5 4 C-5.66 4 -6.32 4 -7 4 C-7 6.31 -7 8.62 -7 11 C-3.80097361 11.08886184 -1.07322544 10.91058531 2 10 C2 10.99 2 11.98 2 13 C0 15 0 15 -3.375 15.375 C-7 15 -7 15 -9.4375 13.4375 C-11.60396028 10.05782196 -11.56288002 7.94016013 -11 4 C-8.11930897 -0.49387801 -5.1100914 -0.74328602 0 0 Z " fill="#EBEEF8" transform="translate(24,14)"/>
<path d="M0 0 C6.8359375 -0.1953125 6.8359375 -0.1953125 9 0 C11 2 11 2 11.1953125 4.1640625 C11.17210937 4.97617187 11.14890625 5.78828125 11.125 6.625 C11.10695313 7.44226563 11.08890625 8.25953125 11.0703125 9.1015625 C11.03550781 10.04128906 11.03550781 10.04128906 11 11 C9.68 11 8.36 11 7 11 C6.67 8.36 6.34 5.72 6 3 C5.67 3 5.34 3 5 3 C4.67 5.64 4.34 8.28 4 11 C2.68 11 1.36 11 0 11 C0 7.37 0 3.74 0 0 Z " fill="#D6DCF0" transform="translate(41,18)"/>
<path d="M0 0 C3 0.25 3 0.25 5 2.25 C5 3.57 5 4.89 5 6.25 C3.02 6.25 1.04 6.25 -1 6.25 C-1 6.91 -1 7.57 -1 8.25 C0.98 7.92 2.96 7.59 5 7.25 C4.34 8.57 3.68 9.89 3 11.25 C0.125 11.375 0.125 11.375 -3 11.25 C-5 9.25 -5 9.25 -5.25 5.75 C-4.93427155 1.32980166 -4.46370491 0.37197541 0 0 Z " fill="#DDE2F3" transform="translate(90,17.75)"/>
<path d="M0 0 C0.99 0 1.98 0 3 0 C3.33 2.64 3.66 5.28 4 8 C4.33 8 4.66 8 5 8 C5.33 5.36 5.66 2.72 6 0 C7.32 0 8.64 0 10 0 C10 3.63 10 7.26 10 11 C3.06640625 11.09765625 3.06640625 11.09765625 1 11 C0 10 0 10 -0.09765625 7.71484375 C-0.08605469 6.79832031 -0.07445313 5.88179687 -0.0625 4.9375 C-0.05347656 4.01839844 -0.04445313 3.09929688 -0.03515625 2.15234375 C-0.02355469 1.44207031 -0.01195313 0.73179688 0 0 Z " fill="#E2E6F4" transform="translate(73,18)"/>
<path d="M0 0 C1.32 0 2.64 0 4 0 C4 4.95 4 9.9 4 15 C2.68 15 1.36 15 0 15 C0 10.05 0 5.1 0 0 Z " fill="#E0E4F4" transform="translate(29,14)"/>
<path d="M0 0 C0.33 0 0.66 0 1 0 C1.33 1.65 1.66 3.3 2 5 C5.37817425 5.84454356 7.67465243 6.10844919 11 5 C11 5.99 11 6.98 11 8 C9 10 9 10 5.5625 10.3125 C2 10 2 10 0.0625 8.875 C-1.46154563 6.18550771 -1.26357307 4.03109027 -1 1 C-0.67 0.67 -0.34 0.34 0 0 Z " fill="#F0F2F9" transform="translate(15,19)"/>
<path d="M0 0 C1.98 0 3.96 0 6 0 C6 4.95 6 9.9 6 15 C5.01 15 4.02 15 3 15 C3 12.66666667 3 10.33333333 3 8 C2.68197057 6.33034549 2.35015049 4.66321482 2 3 C1.01 3 0.02 3 -1 3 C-0.67 2.01 -0.34 1.02 0 0 Z " fill="#F3F5FB" transform="translate(64,18)"/>
<path d="M0 0 C1.32 0 2.64 0 4 0 C4 3.63 4 7.26 4 11 C2.68 11 1.36 11 0 11 C0 7.37 0 3.74 0 0 Z " fill="#E0E4F4" transform="translate(54,18)"/>
<path d="M0 0 C1.32 0 2.64 0 4 0 C4 3.63 4 7.26 4 11 C2.68 11 1.36 11 0 11 C0 7.37 0 3.74 0 0 Z " fill="#E0E4F4" transform="translate(35,18)"/>
<path d="M0 0 C0.99 0 1.98 0 3 0 C3.103125 1.258125 3.20625 2.51625 3.3125 3.8125 C3.64858808 6.60499657 3.80025876 7.74433121 5.5625 10 C6.036875 10.33 6.51125 10.66 7 11 C5.00045254 11.04254356 2.99958364 11.04080783 1 11 C0 10 0 10 -0.09765625 7.71484375 C-0.08605469 6.79832031 -0.07445313 5.88179687 -0.0625 4.9375 C-0.05347656 4.01839844 -0.04445313 3.09929688 -0.03515625 2.15234375 C-0.02355469 1.44207031 -0.01195313 0.73179688 0 0 Z " fill="#EEF0F9" transform="translate(73,18)"/>
<path d="M0 0 C0.99 0 1.98 0 3 0 C3 3.63 3 7.26 3 11 C2.01 11 1.02 11 0 11 C0 7.37 0 3.74 0 0 Z " fill="#F2F4FA" transform="translate(41,18)"/>
<path d="M0 0 C0.99 0.33 1.98 0.66 3 1 C2.67 3.64 2.34 6.28 2 9 C1.34 7.68 0.68 6.36 0 5 C-0.33 6.65 -0.66 8.3 -1 10 C-1.33 10 -1.66 10 -2 10 C-2.25 3.375 -2.25 3.375 0 0 Z " fill="#CED5ED" transform="translate(15,15)"/>
<path d="M0 0 C0.99 0.33 1.98 0.66 3 1 C3 2.65 3 4.3 3 6 C2.01 6.33 1.02 6.66 0 7 C-1 6 -1 6 -1.125 3.5 C-1 1 -1 1 0 0 Z " fill="#3C59B9" transform="translate(64,20)"/>
<path d="M0 0 C0.99 0.33 1.98 0.66 3 1 C2.67 3.31 2.34 5.62 2 8 C1.34 6.68 0.68 5.36 0 4 C-0.66 5.32 -1.32 6.64 -2 8 C-2.125 5.125 -2.125 5.125 -2 2 C-1.34 1.34 -0.68 0.68 0 0 Z " fill="#CDD5ED" transform="translate(61,18)"/>
</svg>
